# xmcd
#
# Track frame offsets:
#	150
#	15786
#	28482
#	43539
#	53995
#	67366
#	79110
#	91948
#	107891
#	116907
#	131092
#	146933
#	156323
#
# Disc length: 2197 seconds
#
# Revision: 0
# Processed by: cddbd v1.5.1PL2 Copyright (c) Steve Scherf et al.
# Submitted via: dBpowerAMP V4.0
#
DISCID=bf08930d
DTITLE=Jawbone - Hauling
DYEAR=2006
DGENRE=Blues
TTITLE0=Dose of Powder
TTITLE1=Doney Holler
TTITLE2=Bullcat
TTITLE3=Drop Down Low
TTITLE4=Jump Jump
TTITLE5=John Said
TTITLE6=Low Dang Discount Jesus Teenage Blues
TTITLE7=Trouble On My Doorstep
TTITLE8=Chug A Lug
TTITLE9=Saucy Sauce
TTITLE10=Window Hatchet Blues
TTITLE11=Reap What You Sow
TTITLE12=All Want Jesus Name
EXTD=
EXTT0=
EXTT1=
EXTT2=
EXTT3=
EXTT4=
EXTT5=
EXTT6=
EXTT7=
EXTT8=
EXTT9=
EXTT10=
EXTT11=
EXTT12=
PLAYORDER=
